<svg width="48" height="48" viewBox="0 0 36 35" fill="none" xmlns="http://www.w3.org/2000/svg">
<path d="M35.9988 30.7676C33.2933 31.2088 30.5779 31.6152 27.8525 31.9866C30.5771 31.6152 33.2925 31.2088 35.9988 30.7676Z" fill="white"/>
<path d="M34.5811 29.6577C33.2883 29.8958 31.9942 30.1137 30.7014 30.3363C31.9931 30.1137 33.2871 29.8958 34.5811 29.6577Z" fill="white"/>
<path d="M35.969 32.8892C32.8024 33.2463 29.6195 33.5602 26.4204 33.8308C29.6164 33.5634 32.7993 33.2495 35.969 32.8892Z" fill="white"/>
<path d="M34.128 32.126C32.6066 32.3295 31.0757 32.5176 29.5496 32.6962C31.0745 32.5176 32.6066 32.3295 34.128 32.126Z" fill="white"/>
<path d="M34.8286 27.9033C33.6894 28.1414 32.5441 28.389 31.3989 28.6176C32.5441 28.389 33.6882 28.1462 34.8286 27.9033Z" fill="white"/>
<path d="M35.6538 22.4521C34.7324 22.7152 33.811 22.9628 32.8884 23.22C33.811 22.9628 34.7324 22.7152 35.6538 22.4521Z" fill="white"/>
<path d="M35.4158 24.2666C34.4147 24.5297 33.4088 24.7963 32.4028 25.0499C33.4092 24.7967 34.4135 24.5356 35.4158 24.2666Z" fill="white"/>
<path d="M35.0622 26.437C34.0015 26.6846 32.9313 26.9132 31.8611 27.1513C32.9325 26.918 34.0027 26.6846 35.0622 26.437Z" fill="white"/>
<path d="M33.6337 33.8398C31.9242 33.9835 30.2127 34.1125 28.4993 34.2268C30.2143 34.1125 31.9258 33.9835 33.6337 33.8398Z" fill="white"/>
<path d="M35.4645 17.7381C35.4645 14.3241 34.4521 10.9867 32.5554 8.1481C30.6586 5.30946 27.9628 3.09701 24.8086 1.79053C21.6545 0.484042 18.1838 0.142206 14.8354 0.808246C11.487 1.47429 8.41126 3.11829 5.9972 5.53235C3.58313 7.94642 1.93913 11.0221 1.27309 14.3705C0.60705 17.7189 0.948885 21.1897 2.25537 24.3438C3.56185 27.4979 5.77431 30.1938 8.61295 32.0905C11.4516 33.9872 14.7889 34.9996 18.2029 34.9996H18.5065V21.5559H14.7959V17.2345H18.5041V14.0477C18.5041 10.3573 20.7553 8.35259 24.0457 8.35259C25.1562 8.3488 26.2662 8.40563 27.3706 8.52282V12.3811H25.1075C23.3219 12.3811 22.9647 13.2322 22.9647 14.4798V17.2322H27.2444L26.6861 21.5535H22.9647V34.3282C26.566 33.2934 29.7331 31.1153 31.9879 28.1227C34.2427 25.13 35.4629 21.4851 35.4645 17.7381Z" fill="white"/>
<path d="M35.6515 34.2729C32.2722 34.4912 28.8794 34.6599 25.4731 34.7789C28.877 34.6646 32.2698 34.496 35.6515 34.2729Z" fill="white"/>
<path d="M33.0146 34.7861C31.221 34.8457 29.4238 34.8901 27.623 34.9195C29.4214 34.8901 31.2186 34.8457 33.0146 34.7861Z" fill="white"/>
</svg>
