<svg width="48" height="48" viewBox="0 0 35 35" fill="none" xmlns="http://www.w3.org/2000/svg">
<path d="M17.5 0C14.0388 0 10.6554 1.02636 7.77753 2.94928C4.89967 4.87221 2.65665 7.60533 1.33212 10.803C0.00758241 14.0007 -0.338976 17.5194 0.336265 20.9141C1.01151 24.3087 2.67822 27.4269 5.12564 29.8744C7.57306 32.3218 10.6913 33.9885 14.0859 34.6637C17.4806 35.339 20.9993 34.9924 24.197 33.6679C27.3947 32.3434 30.1278 30.1003 32.0507 27.2225C33.9736 24.3446 35 20.9612 35 17.5C35 12.8587 33.1563 8.40752 29.8744 5.12563C26.5925 1.84374 22.1413 0 17.5 0V0ZM25.4909 13.6452C25.4989 13.8174 25.5029 13.9903 25.5029 14.1641C25.5132 15.6675 25.2246 17.1579 24.6538 18.5487C24.0831 19.9395 23.2416 21.203 22.1783 22.2658C21.1149 23.3286 19.851 24.1694 18.4598 24.7394C17.0687 25.3094 15.5782 25.5973 14.0748 25.5862C11.8919 25.5861 9.75506 24.9577 7.91966 23.7759C8.23772 23.8131 8.5577 23.8317 8.87794 23.8314C10.6869 23.8343 12.4443 23.2285 13.8672 22.1115C13.0301 22.0974 12.2183 21.8223 11.5451 21.3247C10.8718 20.8271 10.3706 20.1318 10.1114 19.3357C10.7122 19.4514 11.3315 19.4279 11.9217 19.2669C11.0131 19.0825 10.1961 18.5895 9.60947 17.8715C9.0228 17.1536 8.70252 16.2548 8.70294 15.3276C8.70294 15.3091 8.70294 15.2922 8.70294 15.2769C9.26033 15.5873 9.88404 15.7595 10.5217 15.779C9.67138 15.2109 9.06947 14.3402 8.83853 13.344C8.60758 12.3478 8.76496 11.301 9.27863 10.4167C10.2873 11.6576 11.5457 12.6724 12.972 13.3954C14.3984 14.1183 15.9608 14.5332 17.5579 14.6131C17.3567 13.7516 17.4454 12.8478 17.8102 12.0419C18.1749 11.2359 18.7954 10.5728 19.5755 10.1554C20.3555 9.73807 21.2514 9.58973 22.1243 9.73341C22.9973 9.8771 23.7984 10.3048 24.4035 10.9502C25.3028 10.7726 26.1652 10.4428 26.9536 9.975C26.6535 10.9053 26.0255 11.6949 25.1867 12.1969C25.9828 12.1027 26.7603 11.8895 27.4931 11.5645C26.9546 12.3715 26.2766 13.0761 25.4909 13.6452Z" fill="white"/>
</svg>
